<svg width="777" height="354" viewBox="0 0 777 354" fill="none" xmlns="http://www.w3.org/2000/svg">
<path d="M192.365 33.9631C191.501 35.1242 191.645 36.7208 192.798 38.7528C193.662 39.6236 194.094 41.075 194.094 43.107C194.094 45.139 193.518 46.8807 192.365 48.3321C192.077 48.6224 191.645 49.203 191.068 50.0738C190.492 50.6544 190.348 51.3801 190.636 52.2509C189.483 58.0566 188.907 62.4108 188.907 65.3137C188.907 68.5068 189.627 71.845 191.068 75.3284C191.933 76.4896 192.365 77.7958 192.365 79.2472C192.365 81.8598 191.068 84.0369 188.475 85.7786L190.636 87.0849C190.636 87.9557 190.492 88.3912 190.204 88.3912C188.475 89.8426 187.322 91.4391 186.746 93.1808C186.457 94.9225 186.169 96.6642 185.881 98.4059C185.881 100.148 185.881 101.309 185.881 101.889L185.449 106.679C185.161 107.55 184.872 108.421 184.584 109.292C184.296 110.162 184.152 111.178 184.152 112.339C184.152 115.823 182.423 117.419 178.965 117.129C180.117 118.29 181.27 119.016 182.423 119.306C182.135 120.177 181.99 121.193 181.99 122.354C181.99 123.515 181.702 124.531 181.126 125.402C181.126 125.693 181.126 126.418 181.126 127.579C181.414 128.45 180.838 128.74 179.397 128.45C179.109 128.74 178.82 129.321 178.532 130.192C178.244 130.772 178.1 131.498 178.1 132.369L178.965 137.594C178.965 138.755 178.388 140.497 177.235 142.819C174.354 140.787 172.768 139.771 172.48 139.771C171.904 142.093 171.328 144.561 170.751 147.173C170.175 149.496 169.598 151.963 169.022 154.576C169.31 154.866 169.743 155.011 170.319 155.011C170.607 153.85 170.895 152.689 171.183 151.528C171.472 150.076 171.904 148.48 172.48 146.738C172.768 148.189 173.201 149.351 173.777 150.221C174.354 151.092 174.786 151.963 175.074 152.834C172.48 153.705 171.616 155.156 172.48 157.188C172.48 158.059 172.192 159.075 171.616 160.236C170.463 161.397 169.887 162.994 169.887 165.026L170.319 170.251L170.751 172.863C170.751 174.605 170.175 177.218 169.022 180.701C169.022 180.991 168.157 181.427 166.428 182.007C168.446 183.459 168.878 185.781 167.725 188.974L164.267 197.247C163.979 197.828 163.546 198.844 162.97 200.295C162.682 201.747 161.673 202.617 159.944 202.908C162.25 205.23 162.394 207.407 160.376 209.439L159.944 205.52C158.215 207.843 158.359 209.149 160.376 209.439C160.376 210.6 160.232 211.326 159.944 211.616C158.215 213.068 157.206 215.535 156.918 219.018C156.918 222.212 156.63 224.244 156.054 225.114C154.324 230.92 152.019 236.435 149.137 241.661L145.679 249.498C142.221 250.079 138.618 250.369 134.872 250.369C131.125 250.369 128.532 250.369 127.091 250.369C120.462 249.788 114.41 248.772 108.935 247.321C106.918 247.031 104.612 245.289 102.018 242.096C95.9665 235.129 91.7878 226.856 89.4823 217.277C88.9059 214.954 87.7531 211.036 86.024 205.52C84.2949 200.005 83.2862 194.925 82.998 190.28C82.998 189.119 82.7098 187.378 82.1335 185.055C81.8453 183.604 81.2689 181.282 80.4043 178.089C79.828 174.895 79.6839 172.138 79.9721 169.816C79.9721 168.074 79.5398 165.461 78.6752 161.978C78.0988 158.494 77.9548 155.447 78.2429 152.834V150.657C78.2429 148.625 77.5225 144.416 76.0815 138.03L74.7847 120.613C74.2083 116.839 73.1997 113.21 71.7587 109.727C70.3178 114.662 69.4532 119.161 69.165 123.225C68.8768 124.096 68.5887 125.693 68.3005 128.015C68.0123 130.047 67.0036 131.934 65.2745 133.675C63.8336 135.127 63.9777 135.998 65.7068 136.288V138.465C65.4186 140.787 64.8422 143.835 63.9777 147.609C63.4013 151.383 62.969 154.431 62.6808 156.753C62.3926 158.204 61.9603 159.656 61.384 161.107C61.0958 162.268 60.8076 163.574 60.5194 165.026C60.2312 167.348 59.0785 171.993 57.0611 178.959C55.6202 182.443 54.7556 184.475 54.4675 185.055V192.022C53.6029 194.054 53.0265 196.957 52.7383 200.731C52.7383 204.214 52.5942 206.536 52.3061 207.697C52.0179 208.568 51.4415 209.439 50.5769 210.31C50.0006 211.181 49.8565 211.907 50.1446 212.487C50.721 213.648 51.0092 214.374 51.0092 214.664C51.0092 214.954 50.8651 215.535 50.5769 216.406C50.2887 216.986 50.2887 217.567 50.5769 218.148C50.5769 219.018 50.4328 220.325 50.1446 222.066C49.8565 223.808 49.4242 225.26 48.8478 226.421C48.2714 229.033 47.8391 231.936 47.551 235.129C47.2628 238.322 47.1187 240.499 47.1187 241.661C47.1187 244.854 46.5423 249.353 45.3895 255.159C43.9486 261.545 43.2281 268.512 43.2281 276.059C43.2281 283.316 43.2281 287.67 43.2281 289.122C43.2281 290.863 43.2281 292.895 43.2281 295.218C43.5163 297.54 43.5163 300.298 43.2281 303.491C43.5163 308.716 45.3896 313.796 48.8478 318.731C46.8305 318.731 44.9573 318.876 43.2281 319.166C41.499 319.456 39.7699 319.602 38.0408 319.602L12.1039 317.86C6.9165 317.86 3.60235 315.247 2.16141 310.022C0.720469 305.958 0 301.314 0 296.089C0 291.734 0.288188 288.541 0.864563 286.509C1.15275 286.219 1.15275 285.784 0.864563 285.203C0.864563 284.332 0.864563 283.752 0.864563 283.461V281.284C0.864563 277.801 1.44094 274.898 2.59369 272.576L3.02597 271.705C2.73778 271.124 2.59369 270.253 2.59369 269.092C2.59369 267.931 2.73778 266.915 3.02597 266.044C3.60234 265.173 3.89053 264.303 3.89053 263.432C3.89053 262.561 3.60234 260.964 3.02597 258.642C2.44959 257.771 2.01731 257.046 1.72913 256.465C1.72913 255.594 2.16141 254.723 3.02597 253.852C3.89053 253.272 4.46691 252.256 4.7551 250.804C5.33147 249.063 5.18738 247.611 4.32281 246.45C3.45825 243.838 3.02597 242.241 3.02597 241.661C3.02597 239.629 4.17872 238.177 6.48422 237.306C7.0606 237.016 7.49288 236.435 7.78106 235.565C8.06925 234.403 8.06925 233.387 7.78106 232.517C7.20469 231.355 6.9165 230.485 6.9165 229.904C6.9165 229.033 7.0606 228.017 7.34878 226.856C7.92516 225.405 8.35744 224.244 8.64563 223.373C8.64563 222.212 8.93382 220.905 9.51019 219.454C10.0866 217.712 10.5188 216.116 10.807 214.664C10.807 213.503 10.6629 212.632 10.3748 212.052L9.94247 210.31C9.94247 207.988 11.5275 205.665 14.6976 203.343C12.9684 201.892 12.1039 200.295 12.1039 198.554C12.1039 197.683 12.3921 196.376 12.9684 194.635C13.5448 192.893 13.9771 191.442 14.2653 190.28C14.2653 189.99 14.4094 189.555 14.6976 188.974C14.9858 188.394 15.1298 187.813 15.1298 187.232C14.5535 182.007 15.8503 176.347 19.0204 170.251V153.269C20.7495 152.108 21.7582 151.237 22.0464 150.657C22.0464 149.786 21.9023 148.915 21.6141 148.044C21.3259 147.173 21.0377 146.448 20.7495 145.867C22.7668 144.706 23.7755 143.835 23.7755 143.255C23.7755 142.674 23.3432 141.513 22.4786 139.771V137.159C24.2078 136.288 25.2164 135.272 25.5046 134.111C25.7928 132.95 25.7928 131.353 25.5046 129.321C25.2164 127.289 25.3605 125.838 25.9369 124.967C25.9369 124.677 25.7928 124.241 25.5046 123.661C25.5046 122.79 25.9369 122.209 26.8015 121.919C26.8015 121.338 27.0896 120.467 27.666 119.306C28.2424 118.145 27.9542 117.419 26.8015 117.129C27.0896 115.678 27.3778 113.791 27.666 111.469C27.9542 108.856 29.107 106.824 31.1243 105.373H31.5565V104.502C31.5565 103.05 31.9888 101.164 32.8534 98.8413C33.718 96.2288 34.1502 94.1968 34.1502 92.7454V91.0037C34.1502 88.6814 34.7266 84.9078 35.8794 79.6827C36.4557 79.1021 36.7439 78.8118 36.7439 78.8118C37.0321 78.5215 37.3203 78.2313 37.6085 77.941C37.8967 77.6507 38.0408 77.2153 38.0408 76.6347C38.0408 74.3124 38.473 71.845 39.3376 69.2325C40.4904 66.6199 41.2108 64.7331 41.499 63.572C41.7872 62.4108 42.0754 60.9594 42.3636 59.2177C42.6518 57.1857 42.7959 55.7343 42.7959 54.8635C42.7959 53.9926 42.94 53.2669 43.2281 52.6863C43.5163 52.1058 43.8045 51.5252 44.0927 50.9447C46.11 51.2349 48.9919 51.3801 52.7383 51.3801C53.8911 48.4773 55.7643 47.0258 58.358 47.0258C58.9344 47.0258 60.3753 47.3161 62.6808 47.8967C78.2429 50.7995 89.7704 53.7023 97.2633 56.6052C103.603 58.0566 107.782 62.556 109.799 70.1033C110.664 73.5867 111.673 78.8118 112.825 85.7786C113.402 91.0037 113.978 94.7774 114.555 97.0996C114.555 97.6802 114.41 98.2608 114.122 98.8413C113.834 99.1316 113.69 99.7122 113.69 100.583V101.454C113.69 101.744 113.546 102.47 113.258 103.631C113.258 104.792 113.978 105.663 115.419 106.244C115.707 106.534 115.851 107.695 115.851 109.727C115.851 111.178 116.14 113.646 116.716 117.129C117.292 120.322 117.292 122.79 116.716 124.531V125.402C116.716 126.563 117.148 127.87 118.013 129.321C118.589 130.192 118.877 131.934 118.877 134.546C118.877 136.868 118.589 138.61 118.013 139.771C117.725 140.062 117.581 140.497 117.581 141.077C117.869 141.368 118.013 141.658 118.013 141.948C119.166 144.271 119.886 146.883 120.174 149.786C120.462 152.689 120.895 155.011 121.471 156.753L123.632 171.993C123.921 171.702 124.353 173.444 124.929 177.218C125.794 180.991 127.235 186.507 129.252 193.764C130.693 188.248 132.999 179.395 136.169 167.203C139.339 155.011 141.5 145.867 142.653 139.771C145.535 128.16 147.408 119.306 148.273 113.21C149.425 107.985 150.002 103.921 150.002 101.018C152.884 77.7958 154.613 50.7995 155.189 20.0295C155.189 18.2878 155.045 16.5461 154.757 14.8044C154.469 12.7725 154.324 10.8856 154.324 9.14392C153.748 6.82166 153.172 5.51538 152.595 5.2251C152.019 4.06397 151.731 3.19312 151.731 2.61256C151.731 0.870855 152.739 0 154.757 0H155.621C157.927 0.290279 162.25 0.725707 168.59 1.30628C174.93 1.88684 180.838 2.03198 186.313 1.7417H187.178C189.195 1.7417 190.204 2.7577 190.204 4.78968C190.204 6.82166 190.636 8.12793 191.501 8.7085C192.942 9.86962 193.662 11.4662 193.662 13.4982C193.95 15.5301 194.094 16.8364 194.094 17.417C194.094 20.3198 193.95 22.6421 193.662 24.3838V28.738C193.662 31.0603 193.23 32.802 192.365 33.9631ZM184.584 80.5535C184.008 81.1341 183.431 82.0049 182.855 83.1661L183.72 84.9078C183.72 85.198 183.864 85.3432 184.152 85.3432V84.9078L184.584 80.5535ZM178.965 108.421C179.253 108.421 179.685 108.421 180.261 108.421C180.838 108.13 181.702 107.985 182.855 107.985C182.855 107.985 181.702 106.824 179.397 104.502L178.965 108.421ZM178.532 116.694C179.397 113.791 179.685 112.485 179.397 112.775L178.1 111.904C177.524 113.646 177.235 115.097 177.235 116.258L178.532 116.694ZM175.074 131.063C176.515 129.611 177.235 128.16 177.235 126.708L176.803 122.354C176.803 121.774 176.515 121.338 175.939 121.048C175.65 120.467 175.362 119.887 175.074 119.306V131.063ZM177.668 137.594C177.956 136.723 177.956 136.143 177.668 135.852C177.668 135.272 177.235 134.982 176.371 134.982L177.668 137.594ZM169.022 146.303L168.59 145.867L167.293 148.48L167.725 148.915L169.022 146.303Z" fill="#FF0099"/>
<path d="M391.313 185.491C391.313 188.103 391.169 190.135 390.88 191.587L389.151 196.376L386.99 200.731C386.413 202.472 385.549 205.085 384.396 208.568C383.243 211.761 381.802 214.519 380.073 216.841C379.209 218.293 378.2 219.744 377.047 221.196C376.183 222.647 375.174 224.389 374.021 226.421C373.157 228.162 372.004 230.194 370.563 232.517C369.122 234.839 367.681 237.451 366.24 240.354C365.664 241.806 364.511 242.677 362.782 242.967C361.053 242.967 359.9 243.257 359.324 243.838C359.036 244.128 358.459 244.273 357.595 244.273C357.018 243.983 356.586 243.838 356.298 243.838C356.298 244.128 356.586 244.854 357.162 246.015C352.551 249.208 349.814 251.385 348.949 252.546C348.373 253.417 347.796 254.868 347.22 256.9C346.932 258.932 346.644 260.384 346.355 261.255C346.644 261.255 346.644 261.4 346.355 261.69C346.355 261.69 346.211 261.69 345.923 261.69H344.626C342.033 261.69 339.439 263.577 336.845 267.351C334.54 270.253 332.234 272.431 329.929 273.882C329.641 273.592 329.496 272.721 329.496 271.269C328.344 272.431 326.903 274.172 325.174 276.494H328.2L324.309 280.849C324.309 280.849 324.021 280.558 323.444 279.978L324.741 276.93C319.554 280.413 316.24 283.752 314.799 286.945L318.257 285.203C317.681 286.364 317.104 287.235 316.528 287.816C315.952 288.106 315.087 288.396 313.934 288.686L313.07 289.993H311.773C310.332 289.993 308.891 290.573 307.45 291.734C306.297 292.605 305.577 293.186 305.289 293.476C303.56 294.637 302.263 295.363 301.398 295.653C301.686 294.202 300.966 293.911 299.237 294.782C298.66 295.073 297.652 296.379 296.211 298.701C295.058 298.701 294.193 298.846 293.617 299.137L275.029 308.28L271.571 309.151L274.164 306.103C272.147 306.684 269.986 307.264 267.68 307.845C265.663 308.716 263.501 309.587 261.196 310.458C260.331 310.748 259.179 311.183 257.738 311.764C256.585 312.344 255.144 312.78 253.415 313.07C251.398 313.941 248.948 314.086 246.066 313.506C243.761 313.215 240.735 312.925 236.988 312.635C233.242 312.344 230.072 311.619 227.478 310.458H226.613C224.596 310.458 222.867 309.732 221.426 308.28C220.273 306.829 219.553 305.958 219.265 305.668C211.484 297.25 206.584 291.589 204.567 288.686C201.109 283.461 199.38 277.946 199.38 272.14C199.38 266.335 201.253 260.093 204.999 253.417C207.881 248.192 211.628 242.967 216.239 237.742C217.391 236.29 219.121 234.694 221.426 232.952C223.732 230.92 225.605 229.178 227.046 227.727C227.046 227.727 229.063 225.695 233.098 221.631C246.642 210.891 252.838 205.956 251.686 206.827C254.856 204.504 257.738 202.617 260.331 201.166C263.213 199.424 265.663 197.828 267.68 196.376L279.352 189.41C283.386 187.378 289.438 184.039 297.508 179.395C302.119 177.073 305.721 175.766 308.315 175.476L311.341 175.911C310.764 177.073 309.611 178.669 307.882 180.701C306.441 182.443 305.865 184.33 306.153 186.362V186.797C306.153 187.668 305.577 188.684 304.424 189.845C303.559 190.716 302.839 191.442 302.263 192.022C302.551 192.312 302.839 192.893 303.127 193.764C303.415 194.344 303.704 195.07 303.992 195.941C301.686 196.231 299.957 197.102 298.804 198.554C297.652 199.715 296.355 201.601 294.914 204.214L294.049 201.166C292.32 201.456 290.735 202.763 289.294 205.085C288.141 207.407 287.133 208.859 286.268 209.439L288.43 211.181L286.268 214.664C287.421 215.825 287.997 216.986 287.997 218.148C287.997 219.309 287.133 220.325 285.404 221.196C282.522 222.937 280.36 224.389 278.919 225.55C279.496 226.711 280.216 227.001 281.081 226.421C282.234 225.84 282.954 225.695 283.242 225.985C280.36 228.307 278.055 230.485 276.326 232.517C274.885 233.387 274.308 233.968 274.597 234.258V235.565C274.597 237.306 273.732 238.758 272.003 239.919C270.274 241.08 268.977 241.951 268.112 242.531L264.222 246.015C263.934 246.305 263.501 246.45 262.925 246.45C262.349 246.16 261.916 246.16 261.628 246.45L259.899 246.886C260.187 247.176 260.331 247.756 260.331 248.627C260.331 249.498 259.755 250.369 258.602 251.24C257.449 252.111 256.585 252.691 256.009 252.982L249.524 260.384L235.691 276.059C234.539 277.801 233.098 280.123 231.368 283.026C229.928 285.638 228.775 287.816 227.91 289.557C226.757 291.299 225.893 292.605 225.317 293.476C225.028 294.347 225.028 295.798 225.317 297.83C228.775 298.701 232.233 299.137 235.691 299.137C239.438 299.137 243.761 298.411 248.66 296.959C264.51 292.025 279.928 282.881 294.914 269.528C307.018 259.077 318.833 246.595 330.361 232.081C344.77 213.503 355.289 196.086 361.917 179.83C364.223 174.315 365.952 166.913 367.105 157.624C367.393 156.753 367.393 155.737 367.105 154.576C367.105 153.415 367.105 152.544 367.105 151.963C366.817 149.641 365.52 147.899 363.214 146.738C353.992 141.803 341.168 139.046 324.741 138.465C322.436 138.175 318.833 138.03 313.934 138.03C309.035 138.03 305.433 138.175 303.127 138.465C296.211 139.046 291.312 139.626 288.43 140.207L278.487 141.513L265.086 142.384C263.069 142.674 261.196 143.109 259.467 143.69C257.738 143.98 255.864 144.271 253.847 144.561C243.472 145.722 235.547 146.303 230.072 146.303C226.325 146.303 223.011 145.432 220.129 143.69C217.247 141.658 214.51 138.755 211.916 134.982C209.61 131.498 207.593 128.45 205.864 125.838C204.135 123.225 202.55 120.903 201.109 118.871L195.921 112.339C194.192 109.727 193.328 107.405 193.328 105.373C193.328 102.76 194.336 100.293 196.354 97.9705C199.812 93.6162 205.576 88.246 213.645 81.8598L223.587 73.5867C226.469 71.2645 228.054 70.1033 228.343 70.1033C235.835 64.2977 241.599 60.0886 245.634 57.476L259.035 48.7675L277.623 36.1402C279.064 35.2694 281.513 33.6728 284.971 31.3506C288.43 28.738 291.888 26.9963 295.346 26.1255C295.923 26.1255 296.355 25.9803 296.643 25.69C296.931 25.3998 297.219 25.1095 297.508 24.8192C299.525 23.3678 303.992 20.7552 310.908 16.9816C312.926 16.1107 315.952 14.5141 319.986 12.1919C325.75 8.7085 331.081 6.2411 335.981 4.78968C341.168 3.62855 344.914 3.04798 347.22 3.04798C352.984 2.7577 357.451 5.07996 360.621 10.0148C364.655 15.5301 370.419 23.8032 377.912 34.834C379.353 36.5757 380.073 38.8979 380.073 41.8007C380.073 45.2841 378.921 48.3321 376.615 50.9447C376.327 51.2349 375.462 52.1058 374.021 53.5572C372.869 55.0086 372.725 56.7503 373.589 58.7823V59.6531C373.589 61.1046 372.148 62.7011 369.266 64.4428L368.834 62.7011C368.834 61.8303 368.978 60.9594 369.266 60.0886C369.843 59.2177 370.131 58.3469 370.131 57.476C367.825 60.9594 366.384 63.2817 365.808 64.4428C364.655 63.2817 363.935 62.4108 363.647 61.8303C363.07 62.4108 362.638 62.9914 362.35 63.572C362.062 64.1525 361.629 64.588 361.053 64.8783C358.747 64.8783 356.154 64.588 353.272 64.0074L347.652 71.4096C345.059 70.829 342.897 69.3776 341.168 67.0554C339.439 64.4428 337.998 62.556 336.845 61.3948C335.404 59.9434 334.684 58.492 334.684 57.0406C334.684 55.8795 335.26 54.1378 336.413 51.8155C340.159 47.171 342.321 44.4133 342.897 43.5424C339.151 44.7036 335.116 46.5904 330.793 49.203C326.47 51.5252 323.3 53.1218 321.283 53.9926C314.367 57.476 307.162 61.6851 299.669 66.6199C295.058 69.5228 288.141 74.1673 278.919 80.5535L258.602 94.9225C253.703 98.4059 246.931 103.631 238.285 110.598C240.59 111.469 242.752 111.904 244.769 111.904L249.524 111.469C263.934 109.146 274.885 107.985 282.378 107.985C283.242 107.695 284.395 107.405 285.836 107.114C287.277 106.534 288.43 106.244 289.294 106.244C292.176 105.953 296.643 105.808 302.695 105.808C310.764 106.389 316.816 106.969 320.851 107.55C334.684 109.001 346.211 113.21 355.433 120.177C358.603 122.499 360.765 124.531 361.917 126.273C365.952 131.208 367.825 133.53 367.537 133.24C373.877 140.207 379.353 146.738 383.964 152.834C388.575 158.349 390.88 165.026 390.88 172.863L391.313 185.491ZM316.528 35.7048C318.257 35.7048 319.266 35.5597 319.554 35.2694C320.13 34.9791 319.842 34.2534 318.689 33.0923L316.528 35.7048ZM369.266 53.1218L370.563 53.5572C371.139 51.8155 371.86 49.9287 372.725 47.8967L371.86 47.4613L369.266 53.1218ZM267.248 71.4096L268.112 72.2804L271.138 70.5387C271.138 70.2485 270.85 69.813 270.274 69.2325L267.248 71.4096ZM259.035 82.7306C258.746 82.7306 258.602 83.3112 258.602 84.4723C259.179 84.1821 259.755 83.8918 260.331 83.6015C261.196 83.0209 261.916 82.5855 262.493 82.2952L262.06 81.4244L259.035 82.7306ZM287.565 223.373C286.989 223.953 285.836 224.534 284.107 225.114L286.701 222.502L287.565 223.373ZM283.675 225.985H283.242C283.242 225.695 283.242 225.55 283.242 225.55C283.53 225.55 283.675 225.55 283.675 225.55H283.242L284.107 225.114L283.675 225.985ZM304.424 293.041L303.127 291.299L302.263 291.734C302.263 292.605 302.407 293.186 302.695 293.476L304.424 293.041Z" fill="#FF0099"/>
<path d="M583.083 48.7675C587.118 54.8635 589.424 63.4268 590 74.4576C590 88.9717 588.991 102.76 586.974 115.823C584.092 134.982 579.481 153.995 573.141 172.863L569.25 184.185C566.369 193.474 563.919 200.585 561.902 205.52C560.461 209.875 557.579 216.406 553.256 225.114C549.798 232.662 547.06 238.322 545.043 242.096C535.244 260.964 525.302 276.93 515.215 289.993L512.189 294.347C520.547 298.701 528.184 304.362 535.1 311.328C543.169 318.585 550.086 327.149 555.85 337.018C557.002 338.47 557.867 340.357 558.443 342.679C559.308 345.001 559.884 346.598 560.173 347.469C560.173 348.049 559.74 349.21 558.876 350.952L551.095 343.114C549.942 341.953 547.204 340.212 542.881 337.889C539.711 335.277 536.685 333.1 533.803 331.358C531.498 329.907 528.616 328.455 525.158 327.004C521.988 325.552 519.394 324.246 517.377 323.085C506.714 317.57 495.474 314.812 483.659 314.812C464.35 314.812 443.457 320.763 420.978 332.664C418.961 333.535 416.079 334.986 412.332 337.018C408.874 339.341 406.424 341.082 404.984 342.244L394.609 351.387C394.032 351.678 393.312 351.968 392.447 352.258C391.583 352.549 391.006 352.549 390.718 352.258C389.565 351.968 388.701 352.113 388.125 352.694C387.548 353.274 387.116 353.71 386.828 354C386.539 353.419 386.107 352.839 385.531 352.258C384.954 351.968 384.522 351.387 384.234 350.517C383.369 349.065 381.784 346.453 379.479 342.679C376.885 338.905 374.868 335.422 373.427 332.229L372.562 328.745C372.562 327.294 372.995 325.843 373.859 324.391C375.588 321.488 380.488 317.424 388.557 312.199C396.626 306.974 405.848 302.185 416.223 297.83C412.476 293.186 410.171 288.831 409.306 284.768C407.577 278.381 406.713 273.301 406.713 269.528C406.424 267.496 406.28 264.303 406.28 259.948L405.416 250.804C405.416 243.547 405.704 238.177 406.28 234.694L405.848 233.823C404.984 231.501 404.551 229.469 404.551 227.727C404.551 226.276 404.695 224.389 404.984 222.066C405.56 219.454 405.992 217.422 406.28 215.97C406.569 214.809 406.857 213.358 407.145 211.616C407.433 209.584 407.577 208.133 407.577 207.262C407.577 206.681 407.577 205.811 407.577 204.649C407.865 203.488 408.442 202.617 409.306 202.037C409.595 201.747 409.739 201.021 409.739 199.86V196.812C409.739 195.07 410.171 193.909 411.035 193.328C411.324 193.038 411.468 192.603 411.468 192.022C411.468 191.442 411.324 191.006 411.035 190.716C409.595 188.974 408.298 186.942 407.145 184.62C405.992 182.298 405.128 180.556 404.551 179.395C404.263 179.105 404.119 178.814 404.119 178.524C404.119 177.943 403.975 177.508 403.687 177.218L404.119 174.605C404.119 171.702 402.678 169.235 399.796 167.203C399.22 166.913 398.932 166.477 398.932 165.897C398.643 165.316 398.643 164.736 398.932 164.155C398.932 162.704 398.643 161.107 398.067 159.365C397.491 157.624 397.491 156.172 398.067 155.011C398.355 155.011 398.355 154.866 398.067 154.576C397.779 154.285 397.347 153.995 396.77 153.705L399.364 152.399C399.076 149.205 398.067 146.157 396.338 143.255C395.762 140.932 395.473 139.191 395.473 138.03L395.906 132.369C396.194 129.466 396.77 125.983 397.635 121.919C398.499 117.565 398.787 113.936 398.499 111.033C398.499 109.872 398.932 108.421 399.796 106.679C400.949 104.647 401.669 102.905 401.958 101.454L403.687 99.2768C403.687 94.6322 405.704 89.5523 409.739 84.0369C410.027 83.7466 410.171 83.1661 410.171 82.2952C410.747 81.7146 411.324 80.6987 411.9 79.2472C412.765 77.7958 414.206 76.925 416.223 76.6347C415.646 76.0541 415.358 75.1833 415.358 74.0221C415.358 72.2805 416.079 70.6839 417.52 69.2325C418.961 68.0714 420.257 67.0554 421.41 66.1845C422.851 65.0234 424.148 64.0074 425.301 63.1365C425.589 62.8462 425.877 62.8462 426.165 63.1365C426.742 63.1365 427.174 62.9914 427.462 62.7011C426.598 61.2497 426.165 60.0886 426.165 59.2177C426.165 58.0566 426.742 56.8955 427.894 55.7343C429.912 53.7023 432.217 51.5252 434.811 49.203C437.405 46.8807 440.142 44.123 443.024 40.9299C443.889 40.3493 444.753 40.2042 445.618 40.4945C446.483 40.7848 447.059 40.9299 447.347 40.9299C448.5 41.2202 449.22 41.3653 449.509 41.3653C450.085 41.075 450.373 40.2042 450.373 38.7528C450.373 38.1722 450.661 37.5916 451.238 37.0111C451.814 36.4305 452.246 35.7048 452.534 34.834C453.111 32.802 454.264 31.786 455.993 31.786L457.722 31.3506C460.027 29.0283 461.756 27.5769 462.909 26.9963C464.35 26.1255 466.8 24.8192 470.258 23.0775C473.716 21.3358 476.742 20.3198 479.336 20.0295C480.777 19.449 482.074 19.0135 483.226 18.7233C484.667 18.1427 486.108 17.5621 487.549 16.9816C494.178 14.6593 501.382 13.4982 509.163 13.4982C517.233 13.4982 526.022 15.0947 535.533 18.2878C540.432 19.7392 545.475 21.6261 550.662 23.9483C555.85 26.2706 559.452 27.8672 561.469 28.738C569.539 32.2214 575.302 37.0111 578.761 43.107C581.931 47.4613 583.372 49.3481 583.083 48.7675ZM549.366 91.0037C549.654 87.23 549.798 83.0209 549.798 78.3764C549.798 73.4416 549.798 69.9582 549.798 67.9262C549.221 56.8955 547.78 48.187 545.475 41.8007C544.61 38.3173 543.458 35.5597 542.017 33.5277C541.152 32.3666 539.855 31.4957 538.126 30.9151C537.262 30.6248 535.965 30.4797 534.236 30.4797C531.642 30.4797 528.76 31.0603 525.59 32.2214C522.42 33.0923 519.97 33.818 518.241 34.3985C517.089 34.9791 515.503 35.85 513.486 37.0111C511.469 38.1722 509.74 38.8979 508.299 39.1882C500.518 41.8008 491.44 47.3161 481.065 55.7343C480.201 56.6052 479.048 57.6212 477.607 58.7823C476.166 59.6531 475.157 60.3789 474.581 60.9594L468.097 68.3616L460.748 76.6347C454.12 85.6335 448.212 95.9385 443.024 107.55C440.142 115.097 438.413 120.903 437.837 124.967L443.889 126.708C444.753 126.999 447.347 127.724 451.67 128.886C456.281 129.756 460.316 131.353 463.774 133.675C464.35 133.966 465.215 134.111 466.367 134.111C466.656 133.82 467.088 133.675 467.664 133.675C468.529 133.675 469.393 134.111 470.258 134.982C471.123 135.852 471.843 136.578 472.419 137.159L469.826 138.465C467.232 139.046 465.791 140.497 465.503 142.819V143.69C465.503 145.722 464.638 147.609 462.909 149.351C461.468 150.802 460.604 151.673 460.316 151.963C459.163 153.705 458.586 155.156 458.586 156.317C458.586 158.059 458.01 160.672 456.857 164.155C456.569 164.736 456.281 165.171 455.993 165.461C455.705 165.752 455.56 166.042 455.56 166.332C453.831 175.041 452.246 181.282 450.805 185.055C450.517 185.926 450.373 187.087 450.373 188.539C450.373 189.99 451.094 191.877 452.534 194.199C454.552 197.683 458.154 201.166 463.342 204.649C471.411 210.745 478.904 214.519 485.82 215.97C486.973 216.261 488.27 216.406 489.711 216.406C491.44 216.406 492.881 216.551 494.033 216.841L504.408 215.1L516.944 211.616C517.233 211.326 517.521 211.036 517.809 210.745C518.097 210.165 518.385 209.729 518.674 209.439L519.97 205.52C520.835 204.069 521.844 201.601 522.996 198.118C524.437 194.344 525.878 191.587 527.319 189.845C528.76 188.394 528.904 186.942 527.751 185.491C527.463 185.201 527.175 184.62 526.887 183.749C526.887 182.878 527.031 182.153 527.319 181.572C528.184 180.701 529.048 178.959 529.913 176.347C531.066 173.734 532.362 171.847 533.803 170.686C534.38 170.396 534.668 169.67 534.668 168.509C534.956 167.058 535.1 166.042 535.1 165.461L534.236 163.72C535.1 158.204 536.397 152.834 538.126 147.609C539.567 143.835 540.288 140.787 540.288 138.465C540.288 137.884 540.432 137.449 540.72 137.159C543.025 130.482 544.755 123.806 545.907 117.129C546.195 115.678 546.34 113.355 546.34 110.162C548.069 101.454 549.077 95.0677 549.366 91.0037ZM450.805 286.945C460.604 285.203 469.682 284.477 478.039 284.768L483.659 276.059C484.235 275.478 484.956 274.753 485.82 273.882C486.973 273.011 487.693 272.14 487.982 271.269C488.846 268.076 490.431 265.028 492.737 262.125C493.025 261.835 493.745 260.964 494.898 259.513C496.051 258.062 496.771 256.465 497.059 254.723C497.348 253.852 497.78 253.417 498.356 253.417C499.221 253.417 499.797 253.998 500.085 255.159L500.95 252.982C501.238 252.401 501.382 251.095 501.382 249.063C501.382 246.74 502.391 245.144 504.408 244.273C504.696 243.983 504.696 243.693 504.408 243.402C504.12 242.822 503.976 242.386 503.976 242.096C505.705 236 508.011 232.081 510.892 230.34C510.316 228.017 510.028 225.985 510.028 224.244L478.471 222.937C465.503 221.196 454.84 219.018 446.483 216.406C446.483 216.696 446.05 219.164 445.186 223.808C444.897 227.001 444.753 231.646 444.753 237.742V249.498C444.753 250.659 444.609 251.82 444.321 252.982C444.033 253.852 443.889 255.014 443.889 256.465C443.889 258.207 444.177 259.513 444.753 260.384C445.33 260.964 445.618 261.69 445.618 262.561C445.618 263.722 445.33 265.173 444.753 266.915V267.786C444.753 269.818 445.186 271.995 446.05 274.317C447.203 276.64 447.923 278.236 448.212 279.107L450.805 286.945Z" fill="#FF0099"/>
<path d="M624.268 287.412C623.488 287.804 622.512 288 621.342 288C620.172 288 618.026 286.824 614.905 284.473L607.298 279.184C606.127 277.224 603.982 275.069 600.861 272.718L585.646 258.025C582.135 255.282 581.16 251.363 582.72 246.269C588.962 230.204 595.789 216.49 603.202 205.127C605.542 202.384 607.493 199.837 609.053 197.486C610.614 195.135 611.979 193.176 613.15 191.608C616.661 185.339 620.367 179.853 624.268 175.151C630.9 165.747 642.994 149.682 660.549 126.955L706.193 68.1796L719.652 51.7224C720.042 51.3306 721.018 49.5673 722.578 46.4326C719.067 46.4326 716.726 46.8245 715.556 47.6082C705.413 50.7429 696.635 54.0735 689.223 57.6C682.201 61.1265 675.764 65.6326 669.912 71.1184L644.749 92.2775C643.969 93.0612 642.799 93.8449 641.238 94.6286C640.068 95.4122 638.702 96.3918 637.142 97.5674C634.801 98.7429 632.656 100.31 630.705 102.269C629.925 100.702 629.535 99.1347 629.535 97.5674C628.364 98.351 627.194 99.1347 626.024 99.9184C624.853 100.702 623.683 101.486 622.512 102.269C619.392 102.269 616.466 100.506 613.735 96.9796C612.174 95.0204 608.078 91.6898 601.446 86.9878C597.935 83.8531 596.179 81.1102 596.179 78.7592C596.179 76.8 596.569 75.0367 597.35 73.4694C598.91 67.9837 600.666 64.2612 602.616 62.302C610.419 49.3714 621.732 37.4204 636.557 26.449C638.507 24.4898 641.628 22.5306 645.92 20.5714C650.211 18.6122 653.722 16.849 656.453 15.2816C658.404 14.498 660.549 13.5184 662.89 12.3428C665.621 11.1673 668.547 9.99184 671.668 8.81632C677.129 5.68162 685.517 3.3306 696.83 1.76328C699.561 1.37142 702.682 0.979579 706.193 0.587747C709.704 0.195916 713.801 0 718.482 0C726.284 0 734.087 3.91836 741.889 11.7551C748.131 16.4571 754.178 22.5306 760.03 29.9755C765.882 37.4204 769.783 42.3184 771.733 44.6694C775.244 48.1959 777 52.1143 777 56.4245C777 57.2082 776.61 59.1673 775.83 62.302C772.709 72.098 768.612 79.9347 763.541 85.8122L737.208 120.49L703.267 161.633C701.707 163.592 699.951 165.355 698.001 166.922C696.05 168.098 694.295 169.469 692.734 171.037C692.344 171.429 691.954 171.82 691.564 172.212C691.564 172.604 691.369 173.192 690.979 173.976L685.127 180.441C682.786 182.792 681.226 186.122 680.445 190.433C685.127 188.865 691.759 187.298 700.341 185.731C706.973 184.163 714.386 183.38 722.578 183.38C731.551 183.38 738.768 184.555 744.23 186.906C750.472 188.473 756.909 192.196 763.541 198.073C765.491 200.033 766.467 201.404 766.467 202.188C766.857 202.971 766.857 205.127 766.467 208.653C761.005 207.869 756.519 207.478 753.008 207.478C747.546 207.478 742.865 207.869 738.963 208.653C735.452 209.045 731.941 210.612 728.43 213.355C728.04 214.139 727.065 214.922 725.504 215.706C723.944 214.531 722.578 213.159 721.408 211.592C719.067 212.376 717.702 213.355 717.312 214.531C715.361 217.665 713.215 219.233 710.875 219.233L705.608 218.057C700.146 222.367 693.124 225.894 684.542 228.637C683.371 229.029 681.226 230.008 678.105 231.576C675.374 232.751 673.228 234.318 671.668 236.278C670.107 237.845 668.937 238.824 668.157 239.216C665.036 240 661.915 241.763 658.794 244.506C655.673 246.857 653.527 248.424 652.357 249.208C651.576 249.992 649.041 251.755 644.749 254.498C645.139 255.673 646.115 257.437 647.675 259.788C646.115 261.747 644.164 263.706 641.823 265.665C639.483 267.624 637.727 269.388 636.557 270.955C633.826 273.698 632.265 276.441 631.875 279.184C631.875 281.143 631.29 282.71 630.12 283.886C629.34 284.669 628.169 285.453 626.609 286.237C625.438 286.629 624.658 287.02 624.268 287.412Z" fill="#FF0099"/>
</svg>
