<svg width="672" height="307" viewBox="0 0 672 307" fill="none" xmlns="http://www.w3.org/2000/svg">
<path d="M166.608 29.4539C165.859 30.4608 165.984 31.8454 166.982 33.6076C167.731 34.3629 168.105 35.6216 168.105 37.3838C168.105 39.146 167.606 40.6564 166.608 41.9151C166.358 42.1669 165.984 42.6704 165.485 43.4256C164.985 43.9291 164.861 44.5584 165.11 45.3136C164.112 50.3485 163.613 54.1246 163.613 56.6421C163.613 59.4112 164.237 62.3063 165.485 65.3272C166.233 66.3342 166.608 67.467 166.608 68.7257C166.608 70.9914 165.485 72.8795 163.238 74.3899L165.11 75.5228C165.11 76.278 164.985 76.6556 164.736 76.6556C163.238 77.9143 162.24 79.2989 161.741 80.8093C161.491 82.3198 161.241 83.8303 160.992 85.3407C160.992 86.8512 160.992 87.8581 160.992 88.3616L160.617 92.5154C160.368 93.2706 160.118 94.0258 159.869 94.7811C159.619 95.5363 159.494 96.4174 159.494 97.4243C159.494 100.445 157.997 101.83 155.001 101.578C156 102.585 156.998 103.214 157.997 103.466C157.747 104.221 157.622 105.103 157.622 106.109C157.622 107.116 157.373 107.998 156.873 108.753C156.873 109.005 156.873 109.634 156.873 110.641C157.123 111.396 156.624 111.648 155.376 111.396C155.126 111.648 154.877 112.151 154.627 112.907C154.377 113.41 154.253 114.039 154.253 114.795L155.001 119.326C155.001 120.333 154.502 121.843 153.504 123.857C151.008 122.095 149.635 121.214 149.385 121.214C148.886 123.228 148.387 125.368 147.888 127.633C147.389 129.647 146.889 131.787 146.39 134.053C146.64 134.305 147.014 134.431 147.513 134.431C147.763 133.424 148.013 132.417 148.262 131.41C148.512 130.151 148.886 128.766 149.385 127.256C149.635 128.515 150.009 129.522 150.509 130.277C151.008 131.032 151.382 131.787 151.632 132.542C149.385 133.298 148.637 134.556 149.385 136.319C149.385 137.074 149.136 137.955 148.637 138.962C147.638 139.969 147.139 141.353 147.139 143.116L147.513 147.647L147.888 149.913C147.888 151.423 147.389 153.689 146.39 156.71C146.39 156.961 145.641 157.339 144.144 157.843C145.891 159.101 146.265 161.115 145.267 163.884L142.272 171.059C142.022 171.563 141.648 172.444 141.149 173.702C140.899 174.961 140.025 175.716 138.528 175.968C140.525 177.982 140.649 179.87 138.902 181.632L138.528 178.234C137.03 180.248 137.155 181.38 138.902 181.632C138.902 182.639 138.777 183.269 138.528 183.52C137.03 184.779 136.157 186.919 135.907 189.94C135.907 192.709 135.658 194.471 135.158 195.226C133.661 200.261 131.664 205.044 129.168 209.576L126.173 216.373C123.177 216.876 120.058 217.128 116.813 217.128C113.568 217.128 111.322 217.128 110.074 217.128C104.333 216.624 99.0911 215.743 94.3487 214.485C92.6015 214.233 90.6047 212.722 88.3583 209.953C83.1167 203.911 79.4975 196.737 77.5007 188.429C77.0015 186.415 76.0031 183.017 74.5055 178.234C73.0079 173.451 72.1343 169.045 71.8848 165.017C71.8848 164.01 71.6351 162.5 71.1359 160.486C70.8863 159.227 70.3871 157.213 69.6383 154.444C69.1391 151.675 69.0144 149.283 69.2639 147.269C69.2639 145.759 68.8895 143.493 68.1407 140.472C67.6415 137.451 67.5167 134.808 67.7663 132.542V130.654C67.7663 128.892 67.1423 125.242 65.8943 119.704L64.7711 104.599C64.2719 101.326 63.3983 98.1796 62.1504 95.1587C60.9024 99.4383 60.1536 103.34 59.904 106.865C59.6544 107.62 59.4048 109.005 59.1552 111.018C58.9056 112.781 58.032 114.417 56.5344 115.927C55.2864 117.186 55.4112 117.941 56.9088 118.193V120.081C56.6592 122.095 56.16 124.738 55.4112 128.011C54.912 131.284 54.5376 133.927 54.288 135.941C54.0384 137.2 53.664 138.458 53.1648 139.717C52.9152 140.724 52.6656 141.857 52.416 143.116C52.1664 145.13 51.168 149.157 49.4208 155.199C48.1728 158.22 47.424 159.982 47.1744 160.486V166.528C46.4256 168.29 45.9264 170.807 45.6768 174.08C45.6768 177.101 45.552 179.115 45.3024 180.122C45.0528 180.877 44.5536 181.632 43.8048 182.387C43.3056 183.143 43.1808 183.772 43.4304 184.276C43.9296 185.283 44.1792 185.912 44.1792 186.164C44.1792 186.415 44.0544 186.919 43.8048 187.674C43.5552 188.178 43.5552 188.681 43.8048 189.184C43.8048 189.94 43.68 191.073 43.4304 192.583C43.1808 194.093 42.8064 195.352 42.3072 196.359C41.808 198.625 41.4336 201.142 41.184 203.911C40.9344 206.681 40.8096 208.569 40.8096 209.576C40.8096 212.345 40.3104 216.247 39.312 221.282C38.064 226.82 37.44 232.862 37.44 239.407C37.44 245.701 37.44 249.477 37.44 250.736C37.44 252.246 37.44 254.008 37.44 256.022C37.6896 258.036 37.6896 260.428 37.44 263.197C37.6896 267.728 39.312 272.134 42.3072 276.413C40.56 276.413 38.9376 276.539 37.44 276.791C35.9424 277.043 34.4448 277.169 32.9472 277.169L10.4832 275.658C5.9904 275.658 3.12 273.392 1.872 268.861C0.624 265.337 0 261.309 0 256.777C0 253.001 0.2496 250.232 0.748799 248.47C0.998399 248.218 0.998399 247.841 0.748799 247.337C0.748799 246.582 0.748799 246.078 0.748799 245.827V243.938C0.748799 240.918 1.248 238.4 2.2464 236.386L2.6208 235.631C2.3712 235.128 2.2464 234.372 2.2464 233.365C2.2464 232.358 2.3712 231.477 2.6208 230.722C3.12 229.967 3.3696 229.212 3.3696 228.456C3.3696 227.701 3.12 226.317 2.6208 224.303C2.1216 223.547 1.7472 222.918 1.4976 222.415C1.4976 221.659 1.872 220.904 2.6208 220.149C3.3696 219.645 3.8688 218.764 4.1184 217.506C4.6176 215.995 4.4928 214.736 3.744 213.729C2.9952 211.464 2.6208 210.079 2.6208 209.576C2.6208 207.813 3.6192 206.555 5.616 205.8C6.1152 205.548 6.48959 205.044 6.73919 204.289C6.98879 203.282 6.98879 202.401 6.73919 201.646C6.24 200.639 5.9904 199.884 5.9904 199.38C5.9904 198.625 6.1152 197.744 6.36479 196.737C6.86399 195.478 7.23839 194.471 7.48799 193.716C7.48799 192.709 7.73759 191.576 8.23679 190.317C8.73599 188.807 9.11039 187.422 9.35999 186.164C9.35999 185.157 9.23519 184.401 8.98559 183.898L8.61119 182.387C8.61119 180.374 9.98399 178.36 12.7296 176.346C11.232 175.087 10.4832 173.702 10.4832 172.192C10.4832 171.437 10.7328 170.304 11.232 168.793C11.7312 167.283 12.1056 166.024 12.3552 165.017C12.3552 164.765 12.48 164.388 12.7296 163.884C12.9792 163.381 13.104 162.877 13.104 162.374C12.6048 157.843 13.728 152.934 16.4736 147.647V132.92C17.9712 131.913 18.8448 131.158 19.0944 130.654C19.0944 129.899 18.9696 129.144 18.72 128.389C18.4704 127.633 18.2208 127.004 17.9712 126.501C19.7184 125.494 20.592 124.738 20.592 124.235C20.592 123.731 20.2176 122.724 19.4688 121.214V118.948C20.9664 118.193 21.84 117.312 22.0896 116.305C22.3392 115.298 22.3392 113.913 22.0896 112.151C21.84 110.389 21.9648 109.13 22.464 108.375C22.464 108.123 22.3392 107.746 22.0896 107.242C22.0896 106.487 22.464 105.984 23.2128 105.732C23.2128 105.228 23.4624 104.473 23.9616 103.466C24.4608 102.459 24.2112 101.83 23.2128 101.578C23.4624 100.319 23.712 98.6831 23.9616 96.6691C24.2112 94.4035 25.2096 92.6413 26.9568 91.3825H27.3312V90.6273C27.3312 89.3686 27.7056 87.7323 28.4544 85.7183C29.2032 83.4527 29.5776 81.6905 29.5776 80.4317V78.9213C29.5776 76.9073 30.0768 73.6347 31.0752 69.1033C31.5744 68.5998 31.824 68.3481 31.824 68.3481C32.0736 68.0964 32.3232 67.8446 32.5728 67.5929C32.8224 67.3411 32.9472 66.9635 32.9472 66.46C32.9472 64.4461 33.3216 62.3063 34.0704 60.0406C35.0688 57.7749 35.6928 56.1386 35.9424 55.1316C36.192 54.1246 36.4416 52.8659 36.6912 51.3555C36.9408 49.5933 37.0656 48.3346 37.0656 47.5793C37.0656 46.8241 37.1904 46.1948 37.44 45.6913C37.6896 45.1878 37.9392 44.6843 38.1888 44.1808C39.936 44.4326 42.432 44.5584 45.6768 44.5584C46.6752 42.041 48.2976 40.7823 50.544 40.7823C51.0432 40.7823 52.2912 41.034 54.288 41.5375C67.7663 44.0549 77.7503 46.5724 84.2399 49.0898C89.7311 50.3485 93.3503 54.2505 95.0975 60.7958C95.8463 63.8167 96.7199 68.3481 97.7183 74.3899C98.2175 78.9213 98.7167 82.1939 99.2159 84.2079C99.2159 84.7114 99.0911 85.2149 98.8415 85.7183C98.5919 85.9701 98.4671 86.4736 98.4671 87.2288V87.984C98.4671 88.2357 98.3423 88.8651 98.0927 89.8721C98.0927 90.879 98.7167 91.6343 99.9647 92.1378C100.214 92.3895 100.339 93.3965 100.339 95.1587C100.339 96.4174 100.589 98.5572 101.088 101.578C101.587 104.347 101.587 106.487 101.088 107.998V108.753C101.088 109.76 101.462 110.893 102.211 112.151C102.71 112.907 102.96 114.417 102.96 116.683C102.96 118.697 102.71 120.207 102.211 121.214C101.962 121.466 101.837 121.843 101.837 122.347C102.086 122.599 102.211 122.85 102.211 123.102C103.21 125.116 103.834 127.382 104.083 129.899C104.333 132.417 104.707 134.43 105.206 135.941L107.078 149.157C107.328 148.906 107.702 150.416 108.202 153.689C108.95 156.961 110.198 161.745 111.946 168.038C113.194 163.255 115.19 155.577 117.936 145.004C120.682 134.431 122.554 126.501 123.552 121.214C126.048 111.144 127.67 103.466 128.419 98.1796C129.417 93.6482 129.917 90.1238 129.917 87.6064C132.413 67.467 133.91 44.0549 134.41 17.3702C134.41 15.8598 134.285 14.3493 134.035 12.8389C133.785 11.0767 133.661 9.44035 133.661 7.9299C133.161 5.91595 132.662 4.78311 132.163 4.53137C131.664 3.5244 131.414 2.76918 131.414 2.2657C131.414 0.755233 132.288 0 134.035 0H134.784C136.781 0.251739 140.525 0.629356 146.016 1.13285C151.507 1.63633 156.624 1.7622 161.366 1.51046H162.115C163.862 1.51046 164.736 2.39156 164.736 4.15377C164.736 5.91596 165.11 7.0488 165.859 7.55229C167.107 8.55925 167.731 9.94383 167.731 11.706C167.981 13.4682 168.105 14.6011 168.105 15.1046C168.105 17.622 167.981 19.6359 167.731 21.1464V24.9225C167.731 26.9365 167.357 28.4469 166.608 29.4539ZM159.869 69.8586C159.369 70.362 158.87 71.1173 158.371 72.1242L159.12 73.6347C159.12 73.8864 159.245 74.0123 159.494 74.0123V73.6347L159.869 69.8586ZM155.001 94.0258C155.251 94.0258 155.625 94.0258 156.125 94.0258C156.624 93.7741 157.373 93.6482 158.371 93.6482C158.371 93.6482 157.373 92.6413 155.376 90.6273L155.001 94.0258ZM154.627 101.2C155.376 98.6831 155.625 97.5502 155.376 97.802L154.253 97.0467C153.753 98.5572 153.504 99.8159 153.504 100.823L154.627 101.2ZM151.632 113.662C152.88 112.403 153.504 111.144 153.504 109.886L153.129 106.109C153.129 105.606 152.88 105.228 152.381 104.977C152.131 104.473 151.881 103.97 151.632 103.466V113.662ZM153.878 119.326C154.128 118.571 154.128 118.067 153.878 117.816C153.878 117.312 153.504 117.06 152.755 117.06L153.878 119.326ZM146.39 126.878L146.016 126.501L144.893 128.766L145.267 129.144L146.39 126.878Z" fill="#FF0099"/>
<path d="M338.917 160.863C338.917 163.129 338.792 164.891 338.542 166.15L337.045 170.304L335.173 174.08C334.673 175.59 333.925 177.856 332.926 180.877C331.928 183.646 330.68 186.038 329.182 188.052C328.433 189.31 327.56 190.569 326.561 191.828C325.813 193.087 324.939 194.597 323.941 196.359C323.192 197.87 322.193 199.632 320.945 201.646C319.697 203.66 318.449 205.925 317.201 208.443C316.702 209.702 315.704 210.457 314.206 210.708C312.709 210.708 311.71 210.96 311.211 211.464C310.961 211.715 310.462 211.841 309.713 211.841C309.214 211.59 308.84 211.464 308.59 211.464C308.59 211.715 308.84 212.345 309.339 213.352C305.345 216.121 302.974 218.009 302.225 219.016C301.726 219.771 301.227 221.03 300.728 222.792C300.478 224.554 300.229 225.813 299.979 226.568C300.229 226.568 300.229 226.694 299.979 226.946C299.979 226.946 299.854 226.946 299.605 226.946H298.481C296.235 226.946 293.989 228.582 291.742 231.855C289.745 234.372 287.749 236.26 285.752 237.519C285.502 237.267 285.377 236.512 285.377 235.253C284.379 236.26 283.131 237.771 281.633 239.785H284.254L280.885 243.561C280.885 243.561 280.635 243.309 280.136 242.806L281.259 240.162C276.766 243.183 273.896 246.078 272.648 248.847L275.643 247.337C275.144 248.344 274.645 249.099 274.145 249.603C273.646 249.854 272.897 250.106 271.899 250.358L271.15 251.491H270.027C268.779 251.491 267.531 251.994 266.283 253.001C265.285 253.756 264.661 254.26 264.411 254.512C262.913 255.519 261.79 256.148 261.041 256.4C261.291 255.141 260.667 254.889 259.169 255.645C258.67 255.896 257.797 257.029 256.549 259.043C255.55 259.043 254.801 259.169 254.302 259.421L238.203 267.351L235.208 268.106L237.454 265.462C235.707 265.966 233.835 266.469 231.838 266.973C230.091 267.728 228.219 268.483 226.222 269.239C225.473 269.49 224.475 269.868 223.227 270.371C222.229 270.875 220.981 271.253 219.483 271.504C217.736 272.26 215.614 272.385 213.118 271.882C211.121 271.63 208.501 271.378 205.256 271.127C202.011 270.875 199.265 270.246 197.019 269.239H196.27C194.523 269.239 193.025 268.609 191.777 267.351C190.779 266.092 190.155 265.337 189.905 265.085C183.166 257.784 178.923 252.875 177.176 250.358C174.181 245.827 172.683 241.043 172.683 236.009C172.683 230.974 174.305 225.561 177.55 219.771C180.046 215.24 183.291 210.708 187.285 206.177C188.283 204.918 189.781 203.534 191.777 202.023C193.774 200.261 195.397 198.751 196.645 197.492C196.645 197.492 198.392 195.73 201.886 192.205C213.617 182.891 218.984 178.611 217.985 179.367C220.731 177.353 223.227 175.716 225.473 174.458C227.969 172.947 230.091 171.563 231.838 170.304L241.947 164.262C245.441 162.5 250.683 159.605 257.672 155.577C261.665 153.563 264.785 152.43 267.032 152.178L269.653 152.556C269.153 153.563 268.155 154.948 266.657 156.71C265.409 158.22 264.91 159.856 265.16 161.619V161.996C265.16 162.752 264.661 163.633 263.662 164.64C262.913 165.395 262.289 166.024 261.79 166.528C262.04 166.779 262.289 167.283 262.539 168.038C262.789 168.542 263.038 169.171 263.288 169.926C261.291 170.178 259.793 170.933 258.795 172.192C257.797 173.199 256.673 174.835 255.425 177.101L254.677 174.458C253.179 174.709 251.806 175.842 250.558 177.856C249.56 179.87 248.686 181.129 247.937 181.632L249.809 183.143L247.937 186.164C248.936 187.171 249.435 188.178 249.435 189.184C249.435 190.191 248.686 191.073 247.189 191.828C244.693 193.338 242.821 194.597 241.573 195.604C242.072 196.611 242.696 196.863 243.445 196.359C244.443 195.856 245.067 195.73 245.317 195.982C242.821 197.995 240.824 199.884 239.326 201.646C238.078 202.401 237.579 202.904 237.829 203.156V204.289C237.829 205.799 237.08 207.058 235.582 208.065C234.085 209.072 232.961 209.827 232.213 210.331L228.843 213.352C228.593 213.604 228.219 213.729 227.72 213.729C227.221 213.478 226.846 213.478 226.597 213.729L225.099 214.107C225.349 214.359 225.473 214.862 225.473 215.617C225.473 216.373 224.974 217.128 223.976 217.883C222.977 218.638 222.229 219.142 221.729 219.394L216.113 225.813L204.133 239.407C203.134 240.918 201.886 242.932 200.389 245.449C199.141 247.715 198.142 249.603 197.393 251.113C196.395 252.624 195.646 253.756 195.147 254.512C194.897 255.267 194.897 256.526 195.147 258.288C198.142 259.043 201.137 259.421 204.133 259.421C207.377 259.421 211.121 258.791 215.365 257.533C229.093 253.253 242.446 245.323 255.425 233.743C265.909 224.68 276.142 213.855 286.126 201.268C298.606 185.157 307.717 170.052 313.457 155.954C315.454 151.171 316.952 144.752 317.95 136.696C318.2 135.941 318.2 135.06 317.95 134.053C317.95 133.046 317.95 132.291 317.95 131.787C317.701 129.773 316.577 128.263 314.581 127.256C306.593 122.976 295.486 120.585 281.259 120.081C279.262 119.829 276.142 119.704 271.899 119.704C267.656 119.704 264.536 119.829 262.539 120.081C256.549 120.585 252.305 121.088 249.809 121.592L241.198 122.724L229.592 123.48C227.845 123.731 226.222 124.109 224.725 124.613C223.227 124.864 221.605 125.116 219.857 125.368C210.872 126.375 204.008 126.878 199.265 126.878C196.021 126.878 193.15 126.123 190.654 124.613C188.158 122.85 185.787 120.333 183.541 117.06C181.544 114.039 179.797 111.396 178.299 109.13C176.801 106.865 175.429 104.851 174.181 103.089L169.688 97.4243C168.19 95.1587 167.441 93.1447 167.441 91.3825C167.441 89.1169 168.315 86.977 170.062 84.9631C173.057 81.187 178.049 76.5297 185.038 70.9914L193.649 63.8167C196.145 61.8028 197.518 60.7958 197.768 60.7958C204.257 55.761 209.249 52.1107 212.744 49.845L224.35 42.2928L240.449 31.3419C241.697 30.5867 243.819 29.2021 246.814 27.1882C249.809 24.9225 252.805 23.4121 255.8 22.6568C256.299 22.6568 256.673 22.531 256.923 22.2792C257.173 22.0275 257.422 21.7757 257.672 21.524C259.419 20.2653 263.288 17.9996 269.278 14.7269C271.025 13.9717 273.646 12.5871 277.141 10.5732C282.133 7.55228 286.75 5.41248 290.993 4.15377C295.486 3.14679 298.731 2.64331 300.728 2.64331C305.72 2.39157 309.589 4.4055 312.334 8.68512C315.829 13.4682 320.821 20.6429 327.31 30.2091C328.558 31.7196 329.182 33.7335 329.182 36.2509C329.182 39.2718 328.184 41.9151 326.187 44.1808C325.937 44.4326 325.189 45.1878 323.941 46.4465C322.942 47.7052 322.817 49.2157 323.566 50.9779V51.7331C323.566 52.9918 322.318 54.3764 319.822 55.8868L319.448 54.3764C319.448 53.6212 319.573 52.8659 319.822 52.1107C320.321 51.3555 320.571 50.6002 320.571 49.845C318.574 52.8659 317.326 54.8799 316.827 55.8868C315.829 54.8799 315.205 54.1246 314.955 53.6212C314.456 54.1246 314.081 54.6281 313.832 55.1316C313.582 55.6351 313.208 56.0127 312.709 56.2645C310.712 56.2645 308.465 56.0127 305.969 55.5092L301.102 61.9287C298.856 61.4252 296.984 60.1665 295.486 58.1525C293.989 55.8868 292.741 54.2505 291.742 53.2435C290.494 51.9848 289.87 50.7261 289.87 49.4674C289.87 48.4604 290.369 46.95 291.368 44.936C294.613 40.9082 296.485 38.5166 296.984 37.7614C293.739 38.7684 290.245 40.4047 286.501 42.6704C282.757 44.6843 280.011 46.0689 278.264 46.8241C272.273 49.845 266.033 53.4953 259.544 57.7749C255.55 60.2923 249.56 64.3202 241.573 69.8586L223.976 82.3198C219.733 85.3407 213.867 89.8721 206.379 95.9139C208.376 96.6691 210.248 97.0467 211.995 97.0467L216.113 96.6691C228.593 94.6552 238.078 93.6482 244.568 93.6482C245.317 93.3965 246.315 93.1447 247.563 92.893C248.811 92.3895 249.809 92.1378 250.558 92.1378C253.054 91.886 256.923 91.7601 262.165 91.7601C269.153 92.2636 274.395 92.7671 277.889 93.2706C289.87 94.5293 299.854 98.1796 307.841 104.221C310.587 106.235 312.459 107.998 313.457 109.508C316.952 113.788 318.574 115.802 318.325 115.55C323.816 121.592 328.558 127.256 332.552 132.542C336.545 137.326 338.542 143.116 338.542 149.913L338.917 160.863ZM274.145 30.9643C275.643 30.9643 276.517 30.8385 276.766 30.5867C277.265 30.335 277.016 29.7056 276.017 28.6987L274.145 30.9643ZM319.822 46.0689L320.945 46.4465C321.445 44.9361 322.069 43.2997 322.817 41.5375L322.069 41.1599L319.822 46.0689ZM231.464 61.9287L232.213 62.6839L234.833 61.1734C234.833 60.9217 234.584 60.5441 234.085 60.0406L231.464 61.9287ZM224.35 71.7466C224.101 71.7466 223.976 72.2501 223.976 73.2571C224.475 73.0053 224.974 72.7536 225.473 72.5018C226.222 71.9984 226.846 71.6208 227.345 71.369L226.971 70.6138L224.35 71.7466ZM249.061 193.716C248.561 194.219 247.563 194.723 246.065 195.226L248.312 192.961L249.061 193.716ZM245.691 195.982H245.317C245.317 195.73 245.317 195.604 245.317 195.604C245.566 195.604 245.691 195.604 245.691 195.604H245.317L246.065 195.226L245.691 195.982ZM263.662 254.134L262.539 252.624L261.79 253.001C261.79 253.756 261.915 254.26 262.165 254.512L263.662 254.134Z" fill="#FF0099"/>
<path d="M505.01 42.2928C508.504 47.5793 510.501 55.0057 511 64.572C511 77.1591 510.126 89.1169 508.379 100.445C505.883 117.06 501.89 133.549 496.398 149.913L493.029 159.731C490.533 167.786 488.411 173.954 486.664 178.234C485.416 182.01 482.92 187.674 479.176 195.226C476.181 201.772 473.81 206.681 472.062 209.953C463.576 226.317 454.965 240.162 446.229 251.491L443.608 255.267C450.846 259.043 457.461 263.952 463.451 269.994C470.44 276.287 476.43 283.714 481.422 292.273C482.421 293.532 483.17 295.168 483.669 297.182C484.418 299.196 484.917 300.581 485.166 301.336C485.166 301.839 484.792 302.846 484.043 304.357L477.304 297.56C476.306 296.553 473.934 295.042 470.19 293.028C467.445 290.763 464.824 288.875 462.328 287.364C460.331 286.105 457.835 284.847 454.84 283.588C452.094 282.329 449.848 281.196 448.101 280.189C438.866 275.406 429.131 273.015 418.898 273.015C402.174 273.015 384.079 278.175 364.61 288.497C362.863 289.252 360.367 290.511 357.122 292.273C354.127 294.287 352.005 295.797 350.757 296.804L341.771 304.734C341.272 304.986 340.648 305.238 339.899 305.49C339.151 305.741 338.651 305.741 338.402 305.49C337.403 305.238 336.655 305.364 336.155 305.867C335.656 306.371 335.282 306.748 335.032 307C334.783 306.496 334.408 305.993 333.909 305.49C333.41 305.238 333.035 304.734 332.786 303.979C332.037 302.72 330.664 300.455 328.667 297.182C326.421 293.909 324.674 290.888 323.426 288.119L322.677 285.098C322.677 283.84 323.051 282.581 323.8 281.322C325.298 278.805 329.541 275.28 336.53 270.749C343.519 266.218 351.506 262.064 360.491 258.288C357.247 254.26 355.25 250.484 354.501 246.959C353.003 241.421 352.255 237.016 352.255 233.743C352.005 231.981 351.88 229.212 351.88 225.435L351.131 217.506C351.131 211.212 351.381 206.555 351.88 203.534L351.506 202.779C350.757 200.765 350.383 199.002 350.383 197.492C350.383 196.233 350.507 194.597 350.757 192.583C351.256 190.317 351.631 188.555 351.88 187.296C352.13 186.289 352.379 185.031 352.629 183.52C352.879 181.758 353.003 180.499 353.003 179.744C353.003 179.241 353.003 178.485 353.003 177.478C353.253 176.472 353.752 175.716 354.501 175.213C354.751 174.961 354.875 174.332 354.875 173.325V170.681C354.875 169.171 355.25 168.164 355.999 167.661C356.248 167.409 356.373 167.031 356.373 166.528C356.373 166.024 356.248 165.647 355.999 165.395C354.751 163.884 353.627 162.122 352.629 160.108C351.631 158.094 350.882 156.584 350.383 155.577C350.133 155.325 350.008 155.073 350.008 154.822C350.008 154.318 349.883 153.941 349.634 153.689L350.008 151.423C350.008 148.906 348.76 146.766 346.264 145.004C345.765 144.752 345.515 144.374 345.515 143.871C345.266 143.367 345.266 142.864 345.515 142.36C345.515 141.102 345.266 139.717 344.767 138.207C344.267 136.696 344.267 135.437 344.767 134.431C345.016 134.431 345.016 134.305 344.767 134.053C344.517 133.801 344.143 133.549 343.643 133.298L345.89 132.165C345.64 129.396 344.767 126.752 343.269 124.235C342.77 122.221 342.52 120.711 342.52 119.704L342.895 114.795C343.144 112.277 343.643 109.256 344.392 105.732C345.141 101.956 345.391 98.8089 345.141 96.2915C345.141 95.2845 345.515 94.0258 346.264 92.5154C347.263 90.7532 347.887 89.2427 348.136 87.984L349.634 86.0959C349.634 82.0681 351.381 77.6626 354.875 72.8795C355.125 72.6277 355.25 72.1242 355.25 71.369C355.749 70.8655 356.248 69.9844 356.747 68.7257C357.496 67.467 358.744 66.7118 360.491 66.46C359.992 65.9565 359.743 65.2013 359.743 64.1943C359.743 62.6839 360.366 61.2993 361.615 60.0406C362.862 59.0336 363.986 58.1525 364.984 57.3973C366.232 56.3903 367.355 55.5092 368.354 54.754C368.603 54.5023 368.853 54.5023 369.103 54.754C369.602 54.754 369.976 54.6281 370.226 54.3764C369.477 53.1177 369.103 52.1107 369.103 51.3555C369.103 50.3485 369.602 49.3415 370.6 48.3346C372.347 46.5724 374.344 44.6843 376.59 42.6704C378.837 40.6564 381.208 38.2649 383.704 35.4957C384.453 34.9922 385.202 34.8663 385.95 35.1181C386.699 35.3698 387.198 35.4957 387.448 35.4957C388.447 35.7474 389.07 35.8733 389.32 35.8733C389.819 35.6216 390.069 34.8663 390.069 33.6076C390.069 33.1041 390.319 32.6007 390.818 32.0972C391.317 31.5937 391.691 30.9643 391.941 30.2091C392.44 28.4469 393.439 27.5658 394.936 27.5658L396.434 27.1882C398.43 25.1743 399.928 23.9155 400.926 23.4121C402.174 22.6568 404.296 21.524 407.291 20.0135C410.286 18.5031 412.907 17.622 415.154 17.3702C416.402 16.8668 417.525 16.4891 418.523 16.2374C419.771 15.7339 421.019 15.2304 422.267 14.7269C428.008 12.713 434.248 11.706 440.987 11.706C447.976 11.706 455.589 13.0906 463.826 15.8598C468.069 17.1185 472.437 18.7548 476.93 20.7688C481.422 22.7827 484.542 24.1673 486.29 24.9225C493.278 27.9434 498.27 32.0972 501.266 37.3838C504.011 41.1599 505.259 42.7962 505.01 42.2928ZM475.806 78.9213C476.056 75.6486 476.181 71.9984 476.181 67.9705C476.181 63.6909 476.181 60.67 476.181 58.9078C475.682 49.3415 474.434 41.7893 472.437 36.2509C471.688 33.23 470.69 30.8385 469.442 29.0763C468.693 28.0693 467.57 27.3141 466.072 26.8106C465.323 26.5588 464.2 26.433 462.702 26.433C460.456 26.433 457.96 26.9364 455.214 27.9434C452.469 28.6987 450.347 29.328 448.85 29.8315C447.851 30.335 446.478 31.0902 444.731 32.0972C442.984 33.1042 441.486 33.7335 440.238 33.9853C433.499 36.2509 425.637 41.034 416.651 48.3346C415.902 49.0898 414.904 49.9709 413.656 50.9779C412.408 51.7331 411.534 52.3624 411.035 52.8659L405.419 59.2854L399.054 66.46C393.314 74.264 388.197 83.2009 383.704 93.2706C381.208 99.8159 379.711 104.851 379.211 108.375L384.453 109.886C385.202 110.137 387.448 110.767 391.192 111.774C395.186 112.529 398.68 113.913 401.675 115.927C402.174 116.179 402.923 116.305 403.922 116.305C404.171 116.053 404.546 115.927 405.045 115.927C405.794 115.927 406.542 116.305 407.291 117.06C408.04 117.815 408.664 118.445 409.163 118.948L406.917 120.081C404.67 120.585 403.422 121.843 403.173 123.857V124.613C403.173 126.375 402.424 128.011 400.926 129.522C399.678 130.78 398.93 131.535 398.68 131.787C397.682 133.298 397.182 134.556 397.182 135.563C397.182 137.074 396.683 139.339 395.685 142.36C395.435 142.864 395.186 143.241 394.936 143.493C394.687 143.745 394.562 143.997 394.562 144.248C393.064 151.801 391.691 157.213 390.443 160.486C390.194 161.241 390.069 162.248 390.069 163.507C390.069 164.765 390.693 166.402 391.941 168.416C393.688 171.437 396.808 174.458 401.301 177.478C408.29 182.765 414.779 186.038 420.77 187.296C421.768 187.548 422.891 187.674 424.139 187.674C425.637 187.674 426.885 187.8 427.883 188.052L436.869 186.541L447.726 183.52C447.976 183.269 448.226 183.017 448.475 182.765C448.725 182.262 448.974 181.884 449.224 181.632L450.347 178.234C451.096 176.975 451.97 174.835 452.968 171.814C454.216 168.542 455.464 166.15 456.712 164.64C457.96 163.381 458.085 162.122 457.086 160.863C456.837 160.612 456.587 160.108 456.338 159.353C456.338 158.598 456.462 157.968 456.712 157.465C457.461 156.71 458.21 155.199 458.958 152.934C459.957 150.668 461.08 149.032 462.328 148.025C462.827 147.773 463.077 147.143 463.077 146.137C463.326 144.878 463.451 143.997 463.451 143.493L462.702 141.983C463.451 137.2 464.574 132.542 466.072 128.011C467.32 124.738 467.944 122.095 467.944 120.081C467.944 119.578 468.069 119.2 468.318 118.948C470.315 113.158 471.813 107.368 472.811 101.578C473.061 100.319 473.186 98.3055 473.186 95.5363C474.683 87.984 475.557 82.4457 475.806 78.9213ZM390.443 248.847C398.93 247.337 406.792 246.708 414.03 246.959L418.898 239.407C419.397 238.904 420.021 238.274 420.77 237.519C421.768 236.764 422.392 236.009 422.642 235.253C423.39 232.484 424.763 229.841 426.76 227.324C427.01 227.072 427.634 226.317 428.632 225.058C429.63 223.799 430.254 222.415 430.504 220.904C430.754 220.149 431.128 219.771 431.627 219.771C432.376 219.771 432.875 220.275 433.125 221.282L433.874 219.394C434.123 218.89 434.248 217.757 434.248 215.995C434.248 213.981 435.122 212.597 436.869 211.841C437.118 211.59 437.118 211.338 436.869 211.086C436.619 210.583 436.494 210.205 436.494 209.953C437.992 204.667 439.989 201.268 442.485 199.758C441.986 197.744 441.736 195.982 441.736 194.471L414.405 193.338C403.173 191.828 393.938 189.94 386.699 187.674C386.699 187.926 386.325 190.066 385.576 194.093C385.326 196.863 385.202 200.891 385.202 206.177V216.373C385.202 217.38 385.077 218.387 384.827 219.394C384.578 220.149 384.453 221.156 384.453 222.415C384.453 223.925 384.702 225.058 385.202 225.813C385.701 226.316 385.95 226.946 385.95 227.701C385.95 228.708 385.701 229.967 385.202 231.477V232.232C385.202 233.995 385.576 235.883 386.325 237.897C387.323 239.911 387.947 241.295 388.197 242.05L390.443 248.847Z" fill="#FF0099"/>
<path d="M540.416 249.49C539.743 249.83 538.903 250 537.895 250C536.886 250 535.038 248.98 532.349 246.939L525.795 242.347C524.787 240.646 522.938 238.775 520.249 236.735L507.141 223.98C504.116 221.599 503.276 218.197 504.62 213.776C509.998 199.83 515.88 187.925 522.266 178.061C524.283 175.68 525.963 173.469 527.307 171.429C528.652 169.388 529.828 167.687 530.837 166.327C533.861 160.884 537.054 156.122 540.416 152.041C546.129 143.878 556.548 129.932 571.673 110.204L610.997 59.1837L622.593 44.898C622.929 44.5578 623.769 43.0272 625.114 40.3061C622.089 40.3061 620.072 40.6463 619.064 41.3265C610.325 44.0476 602.763 46.9388 596.377 50C590.327 53.0612 584.781 56.9728 579.74 61.7347L558.061 80.102C557.389 80.7823 556.38 81.4626 555.036 82.1429C554.028 82.8231 552.851 83.6735 551.507 84.6939C549.49 85.7143 547.642 87.0748 545.961 88.7755C545.289 87.415 544.953 86.0544 544.953 84.6939C543.945 85.3742 542.936 86.0544 541.928 86.7347C540.92 87.415 539.911 88.0952 538.903 88.7755C536.214 88.7755 533.693 87.2449 531.341 84.1837C529.996 82.483 526.467 79.5918 520.753 75.5102C517.729 72.7891 516.216 70.4082 516.216 68.3673C516.216 66.6667 516.552 65.1361 517.224 63.7755C518.569 59.0136 520.081 55.7823 521.762 54.0816C528.484 42.8571 538.231 32.483 551.003 22.9592C552.683 21.2585 555.372 19.5578 559.069 17.8572C562.766 16.1565 565.791 14.6258 568.144 13.2653C569.825 12.585 571.673 11.7347 573.69 10.7143C576.042 9.69387 578.563 8.67347 581.252 7.65305C585.958 4.93196 593.184 2.89115 602.931 1.53062C605.283 1.19047 607.972 0.850329 610.997 0.510197C614.022 0.170066 617.551 0 621.584 0C628.307 0 635.029 3.40136 641.751 10.2041C647.128 14.2857 652.338 19.5578 657.379 26.0204C662.421 32.483 665.782 36.7347 667.463 38.7755C670.488 41.8367 672 45.2381 672 48.9796C672 49.6599 671.664 51.3605 670.992 54.0816C668.303 62.585 664.774 69.3878 660.404 74.4898L637.717 104.592L608.476 140.306C607.132 142.007 605.62 143.537 603.939 144.898C602.259 145.918 600.746 147.109 599.402 148.469C599.066 148.81 598.729 149.15 598.393 149.49C598.393 149.83 598.225 150.34 597.889 151.02L592.848 156.633C590.831 158.673 589.487 161.565 588.814 165.306C592.848 163.946 598.561 162.585 605.956 161.225C611.669 159.864 618.055 159.184 625.114 159.184C632.844 159.184 639.062 160.204 643.767 162.245C649.145 163.605 654.691 166.837 660.404 171.939C662.085 173.639 662.925 174.83 662.925 175.51C663.261 176.19 663.261 178.061 662.925 181.122C658.22 180.442 654.355 180.102 651.33 180.102C646.624 180.102 642.591 180.442 639.23 181.122C636.205 181.463 633.18 182.823 630.155 185.204C629.819 185.884 628.979 186.565 627.634 187.245C626.29 186.225 625.114 185.034 624.105 183.673C622.089 184.354 620.912 185.204 620.576 186.224C618.896 188.946 617.047 190.306 615.03 190.306L610.493 189.286C605.788 193.027 599.738 196.088 592.343 198.469C591.335 198.81 589.487 199.66 586.798 201.02C584.445 202.041 582.596 203.401 581.252 205.102C579.908 206.463 578.899 207.313 578.227 207.653C575.538 208.333 572.849 209.864 570.161 212.245C567.472 214.286 565.623 215.646 564.615 216.327C563.943 217.007 561.758 218.537 558.061 220.918C558.397 221.939 559.237 223.469 560.582 225.51C559.237 227.211 557.557 228.912 555.54 230.612C553.524 232.313 552.011 233.844 551.003 235.204C548.65 237.585 547.306 239.966 546.97 242.347C546.97 244.048 546.465 245.408 545.457 246.429C544.785 247.109 543.777 247.789 542.432 248.469C541.424 248.81 540.752 249.15 540.416 249.49Z" fill="#FF0099"/>
</svg>
